# xmcd
#
# Track frame offsets:
#	150
#	21102
#	41992
#	66529
#	85845
#	108765
#	131502
#	152976
#	171206
#	191753
#	212899
#	233792
#	257931
#
# Disc length: 3697 seconds
#
# Revision: 1
# Processed by: cddbd v1.4PL0 Copyright (c) Steve Scherf et al.
# Submitted via: EasyCDDAExtractor 5.0.6
#
DISCID=bd0e6f0d
DTITLE=Carl Marshall - This Is For Grown Folks
DYEAR=2002
DGENRE=Blues
TTITLE0=You Need To Jingle
TTITLE1=This Is For Grown Folks
TTITLE2=You Can't Stop A Woman (No. 2)
TTITLE3=I'm Ready For The Rain
TTITLE4=Jingle My Bell (No. 2)
TTITLE5=I Want Some More
TTITLE6=When A Man Loves A Woman
TTITLE7=You Got A Love
TTITLE8=I'm Giving My Heart To You
TTITLE9=Somebody Sticking Your Wife and Woman
TTITLE10=Pray With Me Baby
TTITLE11=I Lived It All
TTITLE12=God Won't Let America Separate
EXTD=
EXTT0=
EXTT1=
EXTT2=
EXTT3=
EXTT4=
EXTT5=
EXTT6=
EXTT7=
EXTT8=
EXTT9=
EXTT10=
EXTT11=
EXTT12=
PLAYORDER=
